<?xml version="1.0" standalone="no"?>
<!DOCTYPE svg PUBLIC "-//W3C//DTD SVG 20010904//EN"
 "http://www.w3.org/TR/2001/REC-SVG-20010904/DTD/svg10.dtd">
<svg version="1.0" xmlns="http://www.w3.org/2000/svg"
 width="500.000000pt" height="500.000000pt" viewBox="0 0 500.000000 500.000000"
 preserveAspectRatio="xMidYMid meet">
<metadata>
Created by potrace 1.14, written by Peter Selinger 2001-2017
</metadata>
<g transform="translate(0.000000,500.000000) scale(0.100000,-0.100000)"
fill="#000000" stroke="none">
<path d="M171 4983 c-26 -9 -65 -36 -92 -63 -86 -86 -79 136 -79 -2420 0
-2555 -7 -2334 79 -2420 88 -88 -148 -80 2421 -80 2574 0 2334 -8 2422 82 85
87 78 -133 78 2418 0 2555 7 2334 -79 2420 -88 88 149 80 -2425 79 -2046 0
-2286 -2 -2325 -16z m1627 -1326 c22 -22 30 -39 26 -50 -5 -13 0 -17 19 -17
36 0 85 -44 96 -87 6 -20 8 -40 5 -44 -2 -4 12 -11 33 -15 21 -4 46 -11 56
-16 29 -15 57 -70 57 -111 0 -33 -9 -47 -81 -122 -45 -47 -87 -85 -92 -85 -6
0 -26 14 -44 32 l-32 31 69 74 c75 79 87 110 49 137 -30 20 -44 13 -124 -65
l-71 -69 -37 38 -37 38 70 69 c71 71 86 105 58 133 -27 27 -60 12 -132 -58
l-72 -70 -32 33 c-18 18 -32 37 -32 42 0 10 201 215 210 215 4 0 21 -15 38
-33z m409 -418 c86 -32 134 -132 103 -214 -9 -24 -8 -26 7 -20 86 38 193 -12
210 -97 4 -20 9 -26 18 -18 8 7 22 -2 48 -28 l37 -38 -110 -109 -110 -109 -35
34 c-24 23 -33 40 -29 52 4 14 0 18 -21 18 -35 0 -90 54 -103 102 -11 40 -3
90 19 125 13 22 10 27 -61 98 -41 41 -78 75 -82 75 -14 0 -20 -48 -8 -70 6
-12 30 -29 54 -39 33 -15 44 -26 53 -55 l11 -36 -43 0 c-53 0 -129 48 -157
100 -25 45 -21 134 7 172 44 58 125 83 192 57z m491 -482 c22 -22 30 -39 26
-50 -5 -13 0 -17 19 -17 36 0 85 -44 96 -87 6 -20 8 -40 5 -44 -2 -4 12 -11
33 -15 21 -4 46 -11 56 -16 29 -15 57 -70 57 -111 0 -33 -9 -47 -81 -122 -45
-47 -87 -85 -92 -85 -6 0 -26 14 -44 32 l-32 31 69 74 c75 79 87 110 49 137
-30 20 -44 13 -124 -65 l-71 -69 -37 38 -37 38 70 69 c71 71 86 105 58 133
-27 27 -60 12 -132 -58 l-72 -70 -32 33 c-18 18 -32 37 -32 42 0 10 201 215
210 215 4 0 21 -15 38 -33z m392 -407 c28 0 87 -56 101 -95 7 -19 17 -31 22
-28 5 3 44 -30 87 -72 l78 -78 -29 -80 c-16 -44 -28 -82 -26 -84 2 -2 39 10
83 27 l78 30 24 -23 c27 -25 26 -33 -12 -131 -22 -59 -24 -67 -8 -61 9 4 48
18 85 32 l68 26 40 -39 c21 -21 39 -41 39 -44 0 -7 -300 -100 -321 -100 -7 0
-23 10 -35 21 l-23 21 29 79 c16 44 25 79 20 79 -6 0 -38 -11 -72 -25 -75 -31
-79 -31 -106 -2 l-22 23 45 148 c25 82 45 153 45 159 0 7 -46 -34 -103 -91
l-103 -102 -33 34 c-19 20 -31 41 -28 49 4 10 -6 18 -34 26 -48 14 -89 66 -96
120 -7 49 24 117 66 148 32 24 89 43 109 37 8 -2 22 -4 32 -4z"/>
<path d="M2156 3162 c-7 -11 68 -84 77 -76 14 14 7 41 -16 62 -24 22 -52 29
-61 14z"/>
<path d="M2352 2893 c-32 -27 -37 -64 -12 -96 29 -37 80 -37 109 -1 27 35 26
59 -4 89 -28 29 -65 32 -93 8z"/>
<path d="M3034 2238 c-12 -5 -28 -21 -35 -34 -27 -51 27 -115 84 -100 30 7 61
57 52 85 -13 41 -65 66 -101 49z"/>
</g>
</svg>
